<?xml version="1.0" encoding="utf-8"?>
<!-- Generator: Adobe Illustrator 27.8.1, SVG Export Plug-In . SVG Version: 6.00 Build 0)  -->
<svg version="1.1" id="Layer_1" xmlns="http://www.w3.org/2000/svg" xmlns:xlink="http://www.w3.org/1999/xlink" x="0px" y="0px"
	 width="86px" height="1051.3px" viewBox="0 0 86 1051.3" style="enable-background:new 0 0 86 1051.3;" xml:space="preserve">
<style type="text/css">
	.st0{fill:#D3CA88;}
	.st1{fill:#A54646;}
	.st2{fill:#BCACA4;}
</style>
<g>
	<rect x="7.7" y="7" class="st0" width="3.7" height="3.7"/>
</g>
<g>
	<rect x="31.1" y="7" class="st0" width="3.7" height="3.7"/>
</g>
<g>
	<rect x="7.7" y="30.4" class="st0" width="3.7" height="3.7"/>
</g>
<g>
	<rect x="31.1" y="30.4" class="st0" width="3.7" height="3.7"/>
</g>
<g>
	<g>
		<polygon class="st0" points="10.2,8.5 9.5,8.5 10,8.5 10,8.5 9.5,8.5 10.2,8.5 11.4,8.5 11.4,8.5 		"/>
	</g>
	<g>
		<polygon class="st0" points="9.5,24.5 10,24.5 10,26 9.5,26 10.2,26 11.4,26 11.4,24.5 10.2,24.5 		"/>
	</g>
	<g>
		<polygon class="st0" points="9.5,21.6 10,21.6 10,23.1 9.5,23.1 10.2,23.1 11.4,23.1 11.4,21.6 10.2,21.6 		"/>
	</g>
	<g>
		<polygon class="st0" points="9.5,28.2 10,28.2 10,29.7 9.5,29.7 10.2,29.7 11.4,29.7 11.4,28.2 10.2,28.2 		"/>
	</g>
	<g>
		<polygon class="st0" points="9.5,10.7 10,10.7 10,12.1 9.5,12.1 10.2,12.1 11.4,12.1 11.4,10.7 10.2,10.7 		"/>
	</g>
	<g>
		<polygon class="st0" points="9.5,14.3 10,14.3 10,15.8 9.5,15.8 10.2,15.8 11.4,15.8 11.4,14.3 10.2,14.3 		"/>
	</g>
	<g>
		<polygon class="st0" points="9.5,18 10,18 10,19.5 9.5,19.5 10.2,19.5 11.4,19.5 11.4,18 10.2,18 		"/>
	</g>
</g>
<g>
	<g>
		<polygon class="st0" points="32.7,8.5 32,8.5 31.9,8.5 31.9,8.5 32,8.5 32.7,8.5 33.3,8.5 33.3,8.5 		"/>
	</g>
	<g>
		<polygon class="st0" points="32,24.5 31.9,24.5 31.9,26 32,26 32.7,26 33.3,26 33.3,24.5 32.7,24.5 		"/>
	</g>
	<g>
		<polygon class="st0" points="32,21.6 31.9,21.6 31.9,23.1 32,23.1 32.7,23.1 33.3,23.1 33.3,21.6 32.7,21.6 		"/>
	</g>
	<g>
		<polygon class="st0" points="32,28.2 31.9,28.2 31.9,29.7 32,29.7 32.7,29.7 33.3,29.7 33.3,28.2 32.7,28.2 		"/>
	</g>
	<g>
		<polygon class="st0" points="32,10.7 31.9,10.7 31.9,12.1 32,12.1 32.7,12.1 33.3,12.1 33.3,10.7 32.7,10.7 		"/>
	</g>
	<g>
		<polygon class="st0" points="32,14.3 31.9,14.3 31.9,15.8 32,15.8 32.7,15.8 33.3,15.8 33.3,14.3 32.7,14.3 		"/>
	</g>
	<g>
		<polygon class="st0" points="32,18 31.9,18 31.9,19.5 32,19.5 32.7,19.5 33.3,19.5 33.3,18 32.7,18 		"/>
	</g>
</g>
<g>
	<g>
		<polygon class="st0" points="10,8.9 10,9.7 10,10 10,10 10,9.7 10,8.9 10,8.5 10,8.5 		"/>
	</g>
	<g>
		<polygon class="st0" points="26,9.7 26,10 27.5,10 27.5,9.7 27.5,8.9 27.5,8.5 26,8.5 26,8.9 		"/>
	</g>
	<g>
		<polygon class="st0" points="22.3,9.7 22.3,10 23.8,10 23.8,9.7 23.8,8.9 23.8,8.5 22.3,8.5 22.3,8.9 		"/>
	</g>
	<g>
		<polygon class="st0" points="29.7,9.7 29.7,10 31.1,10 31.1,9.7 31.1,8.9 31.1,8.5 29.7,8.5 29.7,8.9 		"/>
	</g>
	<g>
		<polygon class="st0" points="12.1,9.7 12.1,10 13.6,10 13.6,9.7 13.6,8.9 13.6,8.5 12.1,8.5 12.1,8.9 		"/>
	</g>
	<g>
		<polygon class="st0" points="15,9.7 15,10 16.5,10 16.5,9.7 16.5,8.9 16.5,8.5 15,8.5 15,8.9 		"/>
	</g>
	<g>
		<polygon class="st0" points="18.7,9.7 18.7,10 20.2,10 20.2,9.7 20.2,8.9 20.2,8.5 18.7,8.5 18.7,8.9 		"/>
	</g>
</g>
<g>
	<g>
		<polygon class="st0" points="10,32.2 10,32.9 10,32.6 10,32.6 10,32.9 10,32.2 10,31.1 10,31.1 		"/>
	</g>
	<g>
		<polygon class="st0" points="26,32.9 26,32.6 27.5,32.6 27.5,32.9 27.5,32.2 27.5,31.1 26,31.1 26,32.2 		"/>
	</g>
	<g>
		<polygon class="st0" points="22.3,32.9 22.3,32.6 23.8,32.6 23.8,32.9 23.8,32.2 23.8,31.1 22.3,31.1 22.3,32.2 		"/>
	</g>
	<g>
		<polygon class="st0" points="29.7,32.9 29.7,32.6 31.1,32.6 31.1,32.9 31.1,32.2 31.1,31.1 29.7,31.1 29.7,32.2 		"/>
	</g>
	<g>
		<polygon class="st0" points="12.1,32.9 12.1,32.6 13.6,32.6 13.6,32.9 13.6,32.2 13.6,31.1 12.1,31.1 12.1,32.2 		"/>
	</g>
	<g>
		<polygon class="st0" points="15,32.9 15,32.6 16.5,32.6 16.5,32.9 16.5,32.2 16.5,31.1 15,31.1 15,32.2 		"/>
	</g>
	<g>
		<polygon class="st0" points="18.7,32.9 18.7,32.6 20.2,32.6 20.2,32.9 20.2,32.2 20.2,31.1 18.7,31.1 18.7,32.2 		"/>
	</g>
</g>
<g>
	<path class="st0" d="M23.8,27.3L18.5,22l-2.7,2.5V15h9.5l-2.6,2.6l5.3,5.3L23.8,27.3z M18.3,19.9l5.3,5.3l2.2-2.2l-5.3-5.3l1.1-1.1
		h-4.5v4.5L18.3,19.9z"/>
</g>
<g>
	<g>
		<polygon class="st0" points="18,80.9 9.2,80.9 9.2,56.7 23.1,56.7 23.1,58.2 10.7,58.2 10.7,79.4 18,79.4 		"/>
	</g>
	<g>
		<rect x="15.8" y="58.2" class="st0" width="1.5" height="8.8"/>
	</g>
	<g>
		<rect x="21.6" y="72.1" class="st0" width="1.5" height="8.8"/>
	</g>
	<g>
		<rect x="12.1" y="66.2" class="st0" width="8" height="1.5"/>
	</g>
	<g>
		<rect x="24.5" y="66.2" class="st0" width="8" height="1.5"/>
	</g>
	<g>
		<rect x="18.7" y="72.1" class="st0" width="8" height="1.5"/>
	</g>
	<g>
		<polygon class="st0" points="33.3,80.9 22.3,80.9 22.3,79.4 31.9,79.4 31.9,58.2 27.5,58.2 27.5,56.7 33.3,56.7 		"/>
	</g>
</g>
<g>
	<g>
		<polygon class="st0" points="18,226.4 9.2,226.4 9.2,202.3 23.1,202.3 23.1,203.7 10.7,203.7 10.7,225 18,225 		"/>
	</g>
	<g>
		<rect x="13.6" y="203" class="st0" width="1.5" height="3"/>
	</g>
	<g>
		<rect x="26.7" y="222" class="st0" width="1.5" height="3"/>
	</g>
	<g>
		<polygon class="st0" points="33.3,226.4 22.3,226.4 22.3,225 31.9,225 31.9,203.7 27.5,203.7 27.5,202.3 33.3,202.3 		"/>
	</g>
	<g>
		<g>
			<path class="st0" d="M19,220.2l-3.3-3.3l7.7-8c0.4-0.4,1-0.6,1.6-0.6c0.6,0,1.2,0.2,1.6,0.6l0.1,0.1c0.9,0.9,0.9,2.2,0,3.1
				L19,220.2z M17.7,216.9l1.2,1.2l6.8-7c0.3-0.3,0.3-0.8,0-1.1l-0.1-0.1c-0.1-0.1-0.4-0.2-0.6-0.2s-0.4,0.1-0.6,0.2L17.7,216.9z"/>
		</g>
		<g>
			<path class="st0" d="M16,220l2.8-0.3c0.3,0,0.4-0.4,0.2-0.6l-2.2-2.2c-0.1-0.2-0.5-0.1-0.6,0.1l-0.6,2.5
				C15.6,219.8,15.8,220.1,16,220z"/>
		</g>
		<g>
			
				<rect x="23.3" y="210" transform="matrix(0.7071 -0.7071 0.7071 0.7071 -142.5785 78.9701)" class="st0" width="1.5" height="3.2"/>
		</g>
	</g>
</g>
<g>
	<path class="st0" d="M25.4,130.9l-17.7-9.6v-16.3l0.4-0.1c0.4-0.1,3.2-1.5,5-2.5l0.3-0.1l18.4,9.1v14.2L25.4,130.9z M9.2,120.5
		l16,8.6l5.2-4.3v-12.6l-16.9-8.4c-0.9,0.4-3.2,1.6-4.3,2.1V120.5z"/>
</g>
<g>
	<path class="st0" d="M31.7,126.2l-8.9-4.3c-0.3-0.1-0.4-0.4-0.4-0.6v-5.5l-8.1-4.1l-4.5,2.7l7.9,4.3c0.2,0.1,0.4,0.4,0.4,0.6v6.1
		h-1.5v-5.7l-8.6-4.7c-0.2-0.1-0.4-0.4-0.4-0.6c0-0.3,0.1-0.5,0.4-0.6l5.9-3.6c0.2-0.1,0.5-0.1,0.7,0l8.9,4.5
		c0.2,0.1,0.4,0.4,0.4,0.6v5.5l8.5,4L31.7,126.2z"/>
</g>
<g>
	
		<rect x="16.7" y="116.6" transform="matrix(0.8281 -0.5605 0.5605 0.8281 -62.3215 31.4533)" class="st0" width="6.8" height="1.5"/>
</g>
<g>
	
		<rect x="16.7" y="122.8" transform="matrix(0.8281 -0.5605 0.5605 0.8281 -65.7704 32.5154)" class="st0" width="6.8" height="1.5"/>
</g>
<g>
	<path class="st0" d="M29.7,119.8l-4.4-1.9V112l4.4,1.9V119.8z M26.7,116.9l1.5,0.6v-2.7l-1.5-0.6V116.9z"/>
</g>
<g>
	<polygon class="st0" points="7.8,163.1 7,161.9 22.1,151.8 36,161.9 35.1,163 22.1,153.6 	"/>
</g>
<g>
	<rect x="21.6" y="152.5" class="st0" width="1.5" height="23.4"/>
</g>
<g>
	<rect x="8.5" y="170.1" class="st0" width="26.3" height="1.5"/>
</g>
<g>
	<rect x="9.2" y="160.6" class="st0" width="1.5" height="15.3"/>
</g>
<g>
	<rect x="32.6" y="160.6" class="st0" width="1.5" height="15.3"/>
</g>
<g>
	<g>
		<path class="st0" d="M31.1,259.3h-1.5v-5.1c0-1.6-1.3-3-3-3H16.5c-1.6,0-3,1.3-3,3v5.1h-1.5v-5.1c0-2.4,1.9-4.4,4.4-4.4h10.2
			c2.4,0,4.4,1.9,4.4,4.4v5.1H31.1z"/>
	</g>
	<g>
		<path class="st0" d="M23.9,272.7c-2.5,0-5.9,0-10.7,0c-1.7-0.1-2.4-1.4-2.5-2.1v-0.1v-4.3c-1.5-0.6-2.5-2.1-2.7-3.7
			c-0.1-1.1,0.4-2.2,1.2-3s1.8-1.2,3-1.2l0,0c2.2,0,4.1,1.8,4.1,4.1c0,1.6,0,4,0,5.1H27c0-1.1,0-3.4,0-4.9c0-2.2,1.8-4.1,4.1-4.2
			l0,0c1.1,0,2.2,0.4,3,1.2c0.8,0.8,1.2,1.9,1.2,3c-0.1,1.7-1.1,3.1-2.7,3.7v4.1v0.1c-0.4,1.2-1.3,2.1-2.5,2.2v-0.1
			C29.6,272.7,28.1,272.7,23.9,272.7z M12.1,270.3c0.1,0.2,0.4,0.8,1.2,0.9c6.2,0,15.7,0,16.6,0H30c0.2,0,0.9-0.1,1.2-1.1v-5
			l0.6-0.1c1.2-0.3,2.1-1.3,2.1-2.5c0-0.7-0.2-1.5-0.7-1.9c-0.5-0.5-1.2-0.8-1.9-0.8l0,0c-1.5,0-2.7,1.2-2.7,2.7
			c0,5.8,0,5.8-0.2,6.1l-0.5-0.5h-0.2v0.8H15.2l-0.2-0.2c-0.2-0.3-0.2-0.3-0.2-6.4c0-1.5-1.2-2.7-2.7-2.7l0,0
			c-0.6,0-1.4,0.3-1.9,0.8c-0.5,0.5-0.8,1.2-0.8,1.9c0.1,1.2,0.9,2.2,2.1,2.5L12,265C12.1,265,12.1,270.3,12.1,270.3z"/>
	</g>
	<g>
		<polygon class="st0" points="15.8,276.2 12.8,276.2 12.8,271.7 14.3,271.7 14.3,274.7 14.7,274.7 15.6,271.6 17,272 		"/>
	</g>
	<g>
		<polygon class="st0" points="30.4,276.2 27.5,276.2 26.2,272 27.6,271.6 28.5,274.7 29,274.7 29,271.7 30.4,271.7 		"/>
	</g>
	<g>
		<rect x="15.8" y="263.7" class="st0" width="12.5" height="1.5"/>
	</g>
	<g>
		<path class="st0" d="M12.5,252.3l-1.5-0.1c0-1.8-1.6-2.1-1.9-2.1l-0.1-1.5c2.1-0.2,2.1-1.5,2.1-1.8l1.5-0.1
			c0.3,1.8,1.6,2.1,1.8,2.1l-0.1,1.5C12.8,250.3,12.5,252.1,12.5,252.3z M11.3,249.5c0.2,0.1,0.4,0.4,0.6,0.6
			c0.1-0.2,0.4-0.4,0.6-0.6c-0.1-0.1-0.4-0.4-0.5-0.6C11.8,249.2,11.5,249.3,11.3,249.5z"/>
	</g>
	<g>
		<path class="st0" d="M18.1,258.5l-1.5-0.1c0-3.1-2.8-3.4-3.1-3.4l-0.1-1.5c3.4-0.4,3.4-2.7,3.4-3l1.5-0.1c0.5,3,3,3.3,3,3.3
			l-0.1,1.5C18.4,255.2,18.1,258.4,18.1,258.5z M16,254.4c0.6,0.4,1.1,0.8,1.5,1.5c0.4-0.6,0.9-1.1,1.5-1.5
			c-0.5-0.4-0.9-0.8-1.3-1.5C17.3,253.4,16.8,254,16,254.4z"/>
	</g>
</g>
<g>
	<g>
		<path class="st0" d="M34.5,323.6c-0.4,0-0.9-0.1-1.3-0.4c0,0-1.6-0.9-1.4-1.8l0.1-0.2c0-0.4,0-1.6-0.1-2.5l1.5-0.1
			c0.1,1.7,0.1,2.5,0.1,3c0.2,0.2,0.6,0.6,1.1,0.6c0.1,0,0.4,0,0.7-0.3c0.2-0.2,0.3-0.5,0.3-0.9c0-2.4,0-6.1,0-6.1v-0.1v-0.1
			c0-0.1,0.1-0.8-1.1-1.1l-8.4,0.1l-5.2-5.4c-0.1-0.1-0.4-0.3-0.7-0.2c-0.3,0-0.5,0.1-0.6,0.3l-0.1,0.1c0,0-0.3,0.4,0,1.1l6.7,7v6
			h-1.5v-5.3l-6.5-6.7c-0.7-1.2-0.3-2.4,0.1-2.8c0.1-0.1,0.1-0.1,0.1-0.1c0.4-0.5,1-0.7,1.7-0.8c0.6,0,1.3,0.2,1.8,0.6l4.8,5l8-0.1
			h0.1c0.9,0.2,1.6,0.7,1.9,1.3c0.4,0.6,0.3,1.2,0.3,1.5c0,0.6,0,4,0,6.1c0,0.7-0.3,1.4-0.7,1.8C35.6,323.3,35,323.6,34.5,323.6z
			 M32.4,320.9L32.4,320.9L32.4,320.9z"/>
	</g>
	<g>
		<path class="st0" d="M30,312c-2.2,0-4-1.8-4-4c0-2.2,1.8-4,4-4s4,1.8,4,4C34,310.2,32.2,312,30,312z M30,305.4
			c-1.4,0-2.5,1.2-2.5,2.5s1.2,2.5,2.5,2.5c1.4,0,2.5-1.2,2.5-2.5S31.4,305.4,30,305.4z"/>
	</g>
	<g>
		<path class="st0" d="M12.5,305.4c-2.7,0-4.8-2.1-4.8-4.8c0-2.7,2.1-4.8,4.8-4.8s4.8,2.1,4.8,4.8C17.2,303.3,15.1,305.4,12.5,305.4
			z M12.5,297.4c-1.8,0-3.3,1.5-3.3,3.3s1.5,3.3,3.3,3.3s3.3-1.5,3.3-3.3S14.3,297.4,12.5,297.4z"/>
	</g>
	<g>
		<path class="st0" d="M18,318.5H9.8c-2.1-0.1-2.8-2.1-2.8-3V309v-0.1c0.3-1.6,1.4-2.7,3.3-3.1h0.1c0.3-0.1,1.1-0.1,4.5-0.1v1.5
			c-1.6-0.1-3.5-0.1-4,0c-0.1,0-0.1,0.1-0.3,0.1c-0.9,0.2-1.9,0.6-2.2,1.9v6.4c0,0.1,0.1,1.5,1.4,1.6h8c0.3-0.1,1.3-0.4,1.2-1.2
			c0-0.1-0.1-0.8-1-0.9h-6.7v-1.5h6.8c1.7,0.2,2.2,1.6,2.2,2.2C20.7,317.6,18.9,318.4,18,318.5L18,318.5z"/>
	</g>
	<g>
		<path class="st0" d="M23.1,306.9h-1.8v-1.4l-1.4,0.9l-1.9-1.9l0.9-1.2v-0.1l-1.6-0.1v-2.7l1.6-0.1l0.1-0.1l-0.7-1.4l1.7-1.4
			l1.3,0.6h0.1l0.1-1.4l3,0.1v1.4h0.1c0.1-0.1,0.4-0.4,0.6-0.5l0.5-0.4l2.1,2.2l-0.7,1.1h1.2v2.2h-1.5v-0.7h-0.9l-0.6-1.5l0.6-0.9
			l-0.3-0.3c-0.6,0.5-1.1,0.8-1.5,0.4c-0.1-0.1-0.4-0.2-0.6-0.4l-0.4-0.2V298h-0.1l-0.1,0.9l-1.5,0.6l-1.1-0.5l0,0l0.6,1.1l-0.9,1.5
			h-0.5l0.6,0.1l0.8,1.7l-0.7,0.9l0.2,0.2l1-0.6l1.5,0.4v1.2h0.3L23.1,306.9z"/>
	</g>
	<g>
		<path class="st0" d="M23,304.3c-1.4,0-2.5-1.1-2.5-2.5c0-1.4,1.1-2.5,2.5-2.5s2.5,1.1,2.5,2.5H24c0-0.6-0.4-1-1-1s-1,0.4-1,1
			s0.4,1,1,1V304.3z"/>
	</g>
</g>
<path class="st1" d="M28.6,617.7c0.1-0.2,0.1-0.5,0-0.8c-0.1-0.2-0.3-0.4-0.5-0.5c0-0.1-0.1-0.2-0.2-0.3l-7.2-7.2
	c-0.4-0.4-1-0.4-1.4,0s-0.4,1,0,1.4l5.9,5.9h-23c-0.6,0-1,0.4-1,1s0.4,1,1,1h23l-5.5,5.5c-0.4,0.4-0.4,1,0,1.4
	c0.2,0.2,0.5,0.3,0.7,0.3s0.5-0.1,0.7-0.3l7.2-7.2C28.5,617.9,28.6,617.8,28.6,617.7z"/>
<path class="st2" d="M28.6,657.7c0.1-0.2,0.1-0.5,0-0.8c-0.1-0.2-0.3-0.4-0.5-0.5c0-0.1-0.1-0.2-0.2-0.3l-7.2-7.2
	c-0.4-0.4-1-0.4-1.4,0s-0.4,1,0,1.4l5.9,5.9h-23c-0.6,0-1,0.4-1,1s0.4,1,1,1h23l-5.5,5.5c-0.4,0.4-0.4,1,0,1.4
	c0.2,0.2,0.5,0.3,0.7,0.3s0.5-0.1,0.7-0.3l7.2-7.2C28.5,657.9,28.6,657.8,28.6,657.7z"/>
</svg>
