<?xml version="1.0" encoding="utf-8"?>
<!-- Generator: Adobe Illustrator 28.1.0, SVG Export Plug-In . SVG Version: 6.00 Build 0)  -->
<svg version="1.1" id="Layer_1" xmlns="http://www.w3.org/2000/svg" xmlns:xlink="http://www.w3.org/1999/xlink" x="0px" y="0px"
	 viewBox="0 0 352 660" style="enable-background:new 0 0 352 660;" xml:space="preserve">
<style type="text/css">
	.st0{fill:#A54646;}
	.st1{fill:#BCACA4;}
	.st2{fill:none;stroke:#A54646;stroke-width:14;stroke-linecap:round;stroke-miterlimit:10;}
	.st3{fill:none;stroke:#FF855A;stroke-width:11;stroke-linecap:round;stroke-miterlimit:10;}
	.st4{fill:none;stroke:#FF855A;stroke-width:11;stroke-linecap:square;stroke-linejoin:round;stroke-miterlimit:10;}
</style>
<g>
	<path class="st2" d="M270.2,139.1c3.6,10.3,5.6,21.3,5.6,32.9c0,54.3-44,98.3-98.3,98.3s-98.3-44-98.3-98.3s44-98.3,98.3-98.3
		c10.6,0,20.8,1.7,30.3,4.8"/>
	<path class="st2" d="M243.8,171.9c-0.8,36.5-31,65.5-67.6,64.7c-36.5-0.8-65.5-31-64.7-67.6c0.8-36.5,31-65.5,67.6-64.7"/>
	<path class="st2" d="M209.7,172.8c0,18.3-14.8,33.1-33.1,33.1s-33.1-14.8-33.1-33.1s14.8-33.1,33.1-33.1"/>
	<line class="st3" x1="176.6" y1="172.8" x2="217.8" y2="131.6"/>
	<path class="st4" d="M215.9,133.2l-2.7-19.7c3.3-4,31-31,31-31v19.7h22.3l-31.7,31.7L215.9,133.2z"/>
</g>
<g>
	<path class="st2" d="M78.2,492.3c0,0,26.6-50.3,95.3-54.3c76.8-0.1,108.8,54,108.8,54s-26.7,53.6-108.8,53.5
		C173.5,545.6,107.6,545.6,78.2,492.3"/>
	<line class="st2" x1="177" y1="374" x2="177" y2="410.9"/>
	<line class="st2" x1="262.5" y1="394.9" x2="235.3" y2="419.9"/>
	<line class="st2" x1="93.9" y1="394.9" x2="121" y2="419.9"/>
	<line class="st2" x1="176.6" y1="599.7" x2="176.6" y2="562.8"/>
	<line class="st2" x1="91.2" y1="578.7" x2="118.3" y2="553.8"/>
	<line class="st2" x1="259.8" y1="578.7" x2="232.6" y2="553.8"/>
	<ellipse class="st2" cx="178.2" cy="492.1" rx="44" ry="42.9"/>
	<circle class="st4" cx="176.6" cy="491.2" r="14.4"/>
</g>
</svg>
